<svg width="180" height="40" viewBox="0 0 180 40" fill="none" xmlns="http://www.w3.org/2000/svg">
<mask id="mask0_14_1252" style="mask-type:luminance" maskUnits="userSpaceOnUse" x="0" y="0" width="61" height="37">
<path d="M60.3166 0H0V36.8497H60.3166V0Z" fill="white"/>
</mask>
<g mask="url(#mask0_14_1252)">
<path d="M36.3701 21.5481C34.3024 18.1922 36.135 13.6687 39.9743 12.6531C44.4801 11.4611 48.6661 15.5771 47.4591 20.0131C46.0878 25.0547 39.1246 26.0186 36.3701 21.5481Z" fill="#00A3E0"/>
<path fill-rule="evenodd" clip-rule="evenodd" d="M17.4811 0.159154C1.80908 2.02635 -4.63516 20.8878 6.71999 31.6541C14.6702 39.1922 27.8306 38.2742 34.4642 29.7186C35.0919 28.9089 35.0935 28.9453 34.404 28.5143C33.3114 27.8313 31.2396 25.6073 30.695 24.5332C30.6611 24.4663 30.6166 24.4747 30.578 24.5552C29.7486 26.2896 27.3524 28.4496 25.0626 29.5278C15.9071 33.8386 5.54027 26.1109 7.29699 16.2849C8.47593 9.69161 15.1365 5.05922 21.705 6.26507C22.1816 6.35245 22.7226 6.45152 22.9073 6.48501C23.2276 6.54345 23.2793 6.49851 24.0437 5.49907C24.4842 4.92297 25.4639 3.84572 26.2209 3.10518L27.5977 1.75835L26.8174 1.44226C24.0225 0.310256 20.3956 -0.188253 17.4811 0.159154ZM39.9005 0.111608C27.0695 1.57056 19.3505 14.2382 24.3567 25.6203C24.6474 26.2817 24.5852 26.2675 25.2104 25.8137C27.6021 24.0769 28.8089 21.7098 29.0213 18.3401C29.8401 5.33598 46.5047 1.37904 52.733 12.7096C57.7237 21.7882 49.2887 32.6466 38.9344 30.473C38.1816 30.315 37.9585 30.2999 37.923 30.404C37.7945 30.7818 36.1873 32.6537 35.0101 33.7961L33.674 35.0926L34.1831 35.3137C46.3781 40.6053 60.3334 31.5578 60.3144 18.372C60.2989 7.65473 50.5169 -1.09555 39.9005 0.111608Z" fill="#121C21"/>
</g>
<path d="M82.2146 5.79178H78.3031C78.2513 5.40567 78.144 5.05712 77.9825 4.74623C77.8209 4.43533 77.607 4.16958 77.3412 3.94891C77.0749 3.7283 76.7596 3.56031 76.3944 3.44499C76.0346 3.32463 75.6356 3.26448 75.1975 3.26448C74.4206 3.26448 73.7504 3.44748 73.187 3.81354C72.6289 4.1796 72.1986 4.70862 71.8966 5.40063C71.5989 6.09265 71.4506 6.93007 71.4506 7.91293C71.4506 8.93589 71.6018 9.79336 71.9044 10.4854C72.2118 11.1724 72.6421 11.6913 73.1948 12.0423C73.7529 12.3884 74.4128 12.5614 75.174 12.5614C75.6019 12.5614 75.9906 12.5087 76.3396 12.4034C76.6945 12.2981 77.0049 12.1451 77.2707 11.9446C77.5419 11.739 77.7637 11.4908 77.9355 11.1999C78.1127 10.9041 78.2356 10.5706 78.3031 10.1995L82.2146 10.2221C82.147 10.9041 81.9409 11.576 81.5968 12.2379C81.2575 12.8999 80.791 13.5041 80.1962 14.0507C79.6019 14.5922 78.8769 15.0235 78.0217 15.3444C77.1718 15.6653 76.1962 15.8258 75.0957 15.8258C73.6462 15.8258 72.3474 15.5199 71.1999 14.9082C70.0578 14.2914 69.1556 13.3938 68.4933 12.2154C67.8309 11.0369 67.5 9.60282 67.5 7.91293C67.5 6.218 67.8363 4.78134 68.5089 3.60295C69.1816 2.42452 70.0921 1.52944 71.2391 0.917679C72.3866 0.305868 73.6721 0 75.0957 0C76.066 0 76.9628 0.130378 77.7872 0.391158C78.6111 0.646887 79.3361 1.02297 79.9617 1.51942C80.5878 2.01082 81.096 2.61506 81.4871 3.33216C81.8782 4.04922 82.1211 4.86908 82.2146 5.79178ZM90.7002 15.8333C89.4382 15.8333 88.3534 15.5851 87.4463 15.0887C86.544 14.5873 85.8474 13.8902 85.3574 12.9976C84.8723 12.1001 84.63 11.0595 84.63 9.87611C84.63 8.68765 84.8723 7.64713 85.3574 6.75455C85.8474 5.85697 86.544 5.15992 87.4463 4.66353C88.3534 4.16205 89.4382 3.91131 90.7002 3.91131C91.9628 3.91131 93.0446 4.16205 93.9469 4.66353C94.8545 5.15992 95.5506 5.85697 96.0357 6.75455C96.5258 7.64713 96.771 8.68765 96.771 9.87611C96.771 11.0595 96.5258 12.1001 96.0357 12.9976C95.5506 13.8902 94.8545 14.5873 93.9469 15.0887C93.0446 15.5851 91.9628 15.8333 90.7002 15.8333ZM90.7237 13.0578C91.1829 13.0578 91.5716 12.9224 91.8893 12.6516C92.2075 12.3809 92.4503 12.0047 92.6173 11.5234C92.7891 11.042 92.8753 10.4854 92.8753 9.85351C92.8753 9.21167 92.7891 8.65004 92.6173 8.16866C92.4503 7.68728 92.2075 7.31119 91.8893 7.0404C91.5716 6.76961 91.1829 6.63419 90.7237 6.63419C90.2494 6.63419 89.8479 6.76961 89.519 7.0404C89.1959 7.31119 88.9482 7.68728 88.7759 8.16866C88.6089 8.65004 88.5257 9.21167 88.5257 9.85351C88.5257 10.4854 88.6089 11.042 88.7759 11.5234C88.9482 12.0047 89.1959 12.3809 89.519 12.6516C89.8479 12.9224 90.2494 13.0578 90.7237 13.0578ZM105.001 15.8333C103.739 15.8333 102.654 15.5851 101.746 15.0887C100.844 14.5873 100.148 13.8902 99.6573 12.9976C99.1727 12.1001 98.9299 11.0595 98.9299 9.87611C98.9299 8.68765 99.1727 7.64713 99.6573 6.75455C100.148 5.85697 100.844 5.15992 101.746 4.66353C102.654 4.16205 103.739 3.91131 105.001 3.91131C106.263 3.91131 107.345 4.16205 108.247 4.66353C109.154 5.15992 109.851 5.85697 110.336 6.75455C110.826 7.64713 111.071 8.68765 111.071 9.87611C111.071 11.0595 110.826 12.1001 110.336 12.9976C109.851 13.8902 109.154 14.5873 108.247 15.0887C107.345 15.5851 106.263 15.8333 105.001 15.8333ZM105.024 13.0578C105.483 13.0578 105.872 12.9224 106.19 12.6516C106.508 12.3809 106.75 12.0047 106.917 11.5234C107.089 11.042 107.175 10.4854 107.175 9.85351C107.175 9.21167 107.089 8.65004 106.917 8.16866C106.75 7.68728 106.508 7.31119 106.19 7.0404C105.872 6.76961 105.483 6.63419 105.024 6.63419C104.549 6.63419 104.148 6.76961 103.819 7.0404C103.496 7.31119 103.248 7.68728 103.076 8.16866C102.909 8.65004 102.826 9.21167 102.826 9.85351C102.826 10.4854 102.909 11.042 103.076 11.5234C103.248 12.0047 103.496 12.3809 103.819 12.6516C104.148 12.9224 104.549 13.0578 105.024 13.0578ZM113.691 15.6152V4.06174H117.408V6.16787H117.533C117.752 5.40567 118.109 4.839 118.604 4.46795C119.1 4.09186 119.676 3.90382 120.334 3.90382C120.511 3.90382 120.693 3.91634 120.881 3.94143C121.069 3.96148 121.244 3.99405 121.405 4.03919V7.23597C121.223 7.17577 120.983 7.12814 120.685 7.09302C120.393 7.05796 120.132 7.0404 119.903 7.0404C119.449 7.0404 119.04 7.13816 118.675 7.33374C118.315 7.52427 118.031 7.79257 117.822 8.13858C117.619 8.47955 117.517 8.88073 117.517 9.34206V15.6152H113.691ZM129.547 15.6152H123.625V0.210613H129.539C131.171 0.210613 132.576 0.518999 133.755 1.1358C134.939 1.74756 135.852 2.63012 136.493 3.78346C137.134 4.93177 137.456 6.30574 137.456 7.9054C137.456 9.51005 137.134 10.889 136.493 12.0423C135.857 13.1957 134.947 14.0808 133.763 14.6975C132.579 15.3093 131.174 15.6152 129.547 15.6152ZM127.497 12.441H129.398C130.295 12.441 131.054 12.2956 131.674 12.0047C132.3 11.7089 132.772 11.23 133.09 10.5681C133.413 9.90115 133.576 9.0136 133.576 7.9054C133.576 6.79719 133.413 5.91463 133.09 5.25773C132.767 4.59579 132.29 4.11945 131.659 3.8286C131.033 3.53272 130.261 3.38478 129.343 3.38478H127.497V12.441ZM145.994 15.8333C144.737 15.8333 143.652 15.5952 142.74 15.1188C141.832 14.6374 141.134 13.9529 140.643 13.0653C140.158 12.1727 139.916 11.1122 139.916 9.88364C139.916 8.69014 140.161 7.64713 140.651 6.75455C141.141 5.85697 141.832 5.15992 142.724 4.66353C143.616 4.16205 144.667 3.91131 145.877 3.91131C146.732 3.91131 147.514 4.03919 148.224 4.29492C148.933 4.5507 149.546 4.92928 150.062 5.43071C150.578 5.93219 150.98 6.55149 151.266 7.2886C151.553 8.02072 151.697 8.86067 151.697 9.80842V10.726H141.253V8.58988H148.137C148.132 8.19874 148.036 7.85023 147.848 7.54433C147.66 7.23847 147.402 7.00025 147.074 6.82976C146.75 6.65429 146.377 6.5665 145.955 6.5665C145.527 6.5665 145.144 6.65928 144.805 6.84483C144.466 7.02534 144.198 7.27358 143.999 7.58947C143.801 7.90036 143.697 8.2539 143.686 8.65004V10.8239C143.686 11.2952 143.783 11.7089 143.976 12.0649C144.169 12.4159 144.442 12.6892 144.797 12.8848C145.152 13.0804 145.574 13.1781 146.064 13.1781C146.403 13.1781 146.711 13.133 146.987 13.0428C147.264 12.9525 147.501 12.8196 147.699 12.6441C147.897 12.4686 148.046 12.253 148.145 11.9973L151.658 12.095C151.512 12.8522 151.191 13.5116 150.696 14.0733C150.205 14.6299 149.561 15.0636 148.763 15.3745C147.966 15.6804 147.042 15.8333 145.994 15.8333ZM159.921 15.8333C158.653 15.8333 157.566 15.5826 156.658 15.0812C155.756 14.5797 155.062 13.8827 154.577 12.9901C154.093 12.0925 153.85 11.0545 153.85 9.87611C153.85 8.69268 154.093 7.65466 154.577 6.76208C155.068 5.86446 155.764 5.16496 156.666 4.66353C157.574 4.16205 158.656 3.91131 159.913 3.91131C161.024 3.91131 161.991 4.10439 162.815 4.4905C163.644 4.87661 164.291 5.42318 164.755 6.13026C165.224 6.8323 165.472 7.65715 165.498 8.6049H161.923C161.85 8.01319 161.642 7.54936 161.297 7.21338C160.958 6.8774 160.515 6.70941 159.968 6.70941C159.524 6.70941 159.136 6.82976 158.802 7.07048C158.468 7.30615 158.207 7.65715 158.02 8.12352C157.837 8.58485 157.746 9.15651 157.746 9.8385C157.746 10.5204 157.837 11.0971 158.02 11.5685C158.207 12.0349 158.468 12.3884 158.802 12.6291C159.136 12.8647 159.524 12.9826 159.968 12.9826C160.322 12.9826 160.635 12.9099 160.906 12.7644C161.183 12.619 161.409 12.4059 161.587 12.1251C161.764 11.8393 161.876 11.4933 161.923 11.0871H165.498C165.462 12.0399 165.214 12.8723 164.755 13.5843C164.301 14.2964 163.663 14.8505 162.838 15.2467C162.02 15.6378 161.047 15.8333 159.921 15.8333ZM171.567 12.5839L171.582 8.19874H172.115L175.494 4.06174H179.828L174.806 9.98893H173.796L171.567 12.5839ZM168.117 15.6152V0.210613H171.942V15.6152H168.117ZM175.58 15.6152L172.435 10.8163L174.954 8.20627L180 15.6152H175.58Z" fill="#121C21"/>
<path d="M69.167 25.0735V23.7255H78.4958V25.0735H74.5846V36.2745H73.0786V25.0735H69.167ZM83.5264 36.4706C82.6278 36.4706 81.8523 36.2704 81.2005 35.8701C80.5525 35.4657 80.0526 34.9019 79.7003 34.1789C79.3524 33.4518 79.178 32.6062 79.178 31.6421C79.178 30.6781 79.3524 29.8284 79.7003 29.0931C80.0526 28.3538 80.5427 27.7778 81.1702 27.3652C81.802 26.9485 82.5389 26.7402 83.3808 26.7402C83.8665 26.7402 84.3464 26.8219 84.8204 26.9853C85.2939 27.1487 85.7254 27.4142 86.1138 27.7818C86.5028 28.1454 86.8126 28.6274 87.0432 29.2279C87.2739 29.8284 87.3892 30.5678 87.3892 31.4461V32.0588H80.1983V30.8088H85.9316C85.9316 30.2778 85.8265 29.8039 85.6159 29.3872C85.4092 28.9706 85.1141 28.6417 84.729 28.4007C84.3483 28.1597 83.8993 28.0392 83.3808 28.0392C82.8101 28.0392 82.3161 28.1822 81.8987 28.4681C81.4858 28.75 81.1682 29.1177 80.9454 29.5711C80.7226 30.0245 80.6116 30.5106 80.6116 31.0294V31.8627C80.6116 32.5735 80.7328 33.1761 80.9757 33.6703C81.2229 34.1605 81.565 34.5343 82.0023 34.7917C82.4397 35.0449 82.9479 35.1716 83.5264 35.1716C83.9032 35.1716 84.2433 35.1185 84.5472 35.0122C84.8546 34.9019 85.1199 34.7386 85.3428 34.522C85.5651 34.3015 85.7376 34.0278 85.8588 33.701L87.2436 34.0931C87.098 34.567 86.8527 34.9836 86.5087 35.3431C86.1647 35.6985 85.7395 35.9763 85.2333 36.1764C84.7271 36.3726 84.1583 36.4706 83.5264 36.4706ZM93.7016 36.4706C92.8269 36.4706 92.0739 36.2622 91.4421 35.8456C90.8107 35.4289 90.3245 34.855 89.9844 34.1237C89.6443 33.3925 89.4743 32.5572 89.4743 31.6176C89.4743 30.6618 89.6487 29.8182 89.9966 29.087C90.349 28.3517 90.8391 27.7778 91.4665 27.3652C92.0983 26.9485 92.8352 26.7402 93.6771 26.7402C94.3334 26.7402 94.9242 26.8627 95.4505 27.1079C95.9772 27.3529 96.4082 27.696 96.7444 28.1372C97.0806 28.5784 97.2888 29.0931 97.3699 29.6813H95.9367C95.8272 29.2524 95.5843 28.8725 95.2076 28.5416C94.8352 28.2067 94.3334 28.0392 93.7016 28.0392C93.1426 28.0392 92.6529 28.1862 92.2317 28.4804C91.8149 28.7704 91.489 29.181 91.2539 29.712C91.0233 30.239 90.908 30.8578 90.908 31.5686C90.908 32.2958 91.0213 32.9289 91.2481 33.4681C91.4787 34.0073 91.8027 34.4261 92.2195 34.7243C92.6407 35.0224 93.1347 35.1716 93.7016 35.1716C94.0739 35.1716 94.4121 35.1062 94.716 34.9755C95.0195 34.8448 95.2765 34.6568 95.4871 34.4118C95.6977 34.1666 95.8477 33.8725 95.9367 33.5294H97.3699C97.2888 34.0849 97.0884 34.5853 96.7688 35.0306C96.4527 35.4718 96.0339 35.8231 95.5115 36.0845C94.9931 36.3419 94.3901 36.4706 93.7016 36.4706ZM101.24 30.6127V36.2745H99.8073V23.7255H101.24V28.3333H101.362C101.581 27.8472 101.908 27.4612 102.346 27.1752C102.788 26.8852 103.374 26.7402 104.107 26.7402C104.743 26.7402 105.3 26.8688 105.778 27.1262C106.255 27.3795 106.626 27.7696 106.889 28.2966C107.156 28.8194 107.29 29.4853 107.29 30.2941V36.2745H105.856V30.3921C105.856 29.6446 105.664 29.0666 105.28 28.6581C104.899 28.2455 104.37 28.0392 103.694 28.0392C103.224 28.0392 102.804 28.1393 102.431 28.3395C102.062 28.5396 101.771 28.8317 101.557 29.2157C101.346 29.5997 101.24 30.0653 101.24 30.6127ZM111.687 30.6127V36.2745H110.254V26.8627H111.639V28.3333H111.76C111.979 27.8554 112.311 27.4714 112.756 27.1814C113.202 26.8872 113.777 26.7402 114.481 26.7402C115.113 26.7402 115.665 26.8709 116.139 27.1324C116.613 27.3897 116.981 27.7818 117.245 28.3088C117.508 28.8317 117.639 29.4935 117.639 30.2941V36.2745H116.206V30.3921C116.206 29.6528 116.016 29.0768 115.635 28.6642C115.254 28.2475 114.732 28.0392 114.068 28.0392C113.611 28.0392 113.202 28.1393 112.841 28.3395C112.485 28.5396 112.203 28.8317 111.997 29.2157C111.79 29.5997 111.687 30.0653 111.687 30.6127ZM124.39 36.4706C123.548 36.4706 122.809 36.2684 122.173 35.864C121.542 35.4595 121.048 34.8938 120.692 34.1666C120.339 33.4395 120.163 32.5898 120.163 31.6176C120.163 30.6372 120.339 29.7814 120.692 29.0502C121.048 28.319 121.542 27.7512 122.173 27.3468C122.809 26.9424 123.548 26.7402 124.39 26.7402C125.233 26.7402 125.97 26.9424 126.601 27.3468C127.237 27.7512 127.731 28.319 128.083 29.0502C128.439 29.7814 128.618 30.6372 128.618 31.6176C128.618 32.5898 128.439 33.4395 128.083 34.1666C127.731 34.8938 127.237 35.4595 126.601 35.864C125.97 36.2684 125.233 36.4706 124.39 36.4706ZM124.39 35.1716C125.03 35.1716 125.556 35.0061 125.97 34.6752C126.382 34.3444 126.688 33.9093 126.886 33.3701C127.085 32.8309 127.184 32.2467 127.184 31.6176C127.184 30.9885 127.085 30.4024 126.886 29.8591C126.688 29.3157 126.382 28.8766 125.97 28.5416C125.556 28.2067 125.03 28.0392 124.39 28.0392C123.751 28.0392 123.224 28.2067 122.811 28.5416C122.398 28.8766 122.093 29.3157 121.894 29.8591C121.696 30.4024 121.597 30.9885 121.597 31.6176C121.597 32.2467 121.696 32.8309 121.894 33.3701C122.093 33.9093 122.398 34.3444 122.811 34.6752C123.224 35.0061 123.751 35.1716 124.39 35.1716ZM132.58 23.7255V36.2745H131.147V23.7255H132.58ZM139.338 36.4706C138.496 36.4706 137.757 36.2684 137.121 35.864C136.489 35.4595 135.995 34.8938 135.639 34.1666C135.287 33.4395 135.111 32.5898 135.111 31.6176C135.111 30.6372 135.287 29.7814 135.639 29.0502C135.995 28.319 136.489 27.7512 137.121 27.3468C137.757 26.9424 138.496 26.7402 139.338 26.7402C140.18 26.7402 140.917 26.9424 141.549 27.3468C142.184 27.7512 142.678 28.319 143.03 29.0502C143.386 29.7814 143.565 30.6372 143.565 31.6176C143.565 32.5898 143.386 33.4395 143.03 34.1666C142.678 34.8938 142.184 35.4595 141.549 35.864C140.917 36.2684 140.18 36.4706 139.338 36.4706ZM139.338 35.1716C139.978 35.1716 140.504 35.0061 140.917 34.6752C141.33 34.3444 141.636 33.9093 141.834 33.3701C142.032 32.8309 142.132 32.2467 142.132 31.6176C142.132 30.9885 142.032 30.4024 141.834 29.8591C141.636 29.3157 141.33 28.8766 140.917 28.5416C140.504 28.2067 139.978 28.0392 139.338 28.0392C138.698 28.0392 138.172 28.2067 137.759 28.5416C137.346 28.8766 137.04 29.3157 136.841 29.8591C136.643 30.4024 136.544 30.9885 136.544 31.6176C136.544 32.2467 136.643 32.8309 136.841 33.3701C137.04 33.9093 137.346 34.3444 137.759 34.6752C138.172 35.0061 138.698 35.1716 139.338 35.1716ZM149.861 40C149.168 40 148.573 39.9101 148.075 39.7304C147.577 39.5547 147.162 39.3219 146.83 39.0318C146.502 38.7459 146.241 38.4395 146.046 38.1127L147.188 37.3039C147.318 37.4755 147.482 37.6716 147.68 37.8922C147.879 38.1168 148.15 38.3109 148.494 38.4742C148.842 38.6417 149.298 38.7255 149.861 38.7255C150.614 38.7255 151.235 38.5416 151.725 38.174C152.215 37.8063 152.46 37.2304 152.46 36.4461V34.5343H152.339C152.233 34.7059 152.083 34.9183 151.889 35.1716C151.698 35.4207 151.423 35.6434 151.063 35.8394C150.706 36.0314 150.225 36.1274 149.617 36.1274C148.864 36.1274 148.188 35.9477 147.589 35.5882C146.994 35.2288 146.522 34.7059 146.174 34.0196C145.83 33.3333 145.658 32.5 145.658 31.5196C145.658 30.5555 145.826 29.7161 146.161 29.0012C146.498 28.2823 146.965 27.7267 147.564 27.3345C148.164 26.9383 148.856 26.7402 149.642 26.7402C150.249 26.7402 150.731 26.8423 151.087 27.0466C151.448 27.2467 151.723 27.4755 151.913 27.7328C152.107 27.9861 152.257 28.1944 152.362 28.3578H152.509V26.8627H153.893V36.5441C153.893 37.3529 153.711 38.0106 153.347 38.5171C152.986 39.0278 152.5 39.4015 151.889 39.6385C151.282 39.8795 150.605 40 149.861 40ZM149.812 34.8284C150.387 34.8284 150.873 34.6957 151.269 34.4301C151.666 34.1646 151.968 33.7826 152.174 33.2843C152.381 32.7859 152.484 32.1895 152.484 31.4951C152.484 30.817 152.383 30.2185 152.18 29.6997C151.978 29.181 151.678 28.7745 151.282 28.4804C150.885 28.1862 150.395 28.0392 149.812 28.0392C149.204 28.0392 148.699 28.1944 148.293 28.5049C147.893 28.8153 147.591 29.232 147.388 29.7549C147.19 30.2778 147.091 30.8578 147.091 31.4951C147.091 32.1487 147.192 32.7267 147.394 33.2292C147.601 33.7275 147.904 34.1197 148.306 34.4056C148.71 34.6875 149.213 34.8284 149.812 34.8284ZM156.859 36.2745V26.8627H158.292V36.2745H156.859ZM157.588 25.2941C157.309 25.2941 157.067 25.1981 156.865 25.0061C156.666 24.8141 156.567 24.5833 156.567 24.3137C156.567 24.0441 156.666 23.8133 156.865 23.6213C157.067 23.4293 157.309 23.3333 157.588 23.3333C157.867 23.3333 158.106 23.4293 158.304 23.6213C158.507 23.8133 158.608 24.0441 158.608 24.3137C158.608 24.5833 158.507 24.8141 158.304 25.0061C158.106 25.1981 157.867 25.2941 157.588 25.2941ZM165.171 36.4706C164.272 36.4706 163.496 36.2704 162.844 35.8701C162.197 35.4657 161.697 34.9019 161.344 34.1789C160.996 33.4518 160.822 32.6062 160.822 31.6421C160.822 30.6781 160.996 29.8284 161.344 29.0931C161.697 28.3538 162.187 27.7778 162.814 27.3652C163.446 26.9485 164.183 26.7402 165.025 26.7402C165.511 26.7402 165.991 26.8219 166.464 26.9853C166.938 27.1487 167.369 27.4142 167.758 27.7818C168.147 28.1454 168.457 28.6274 168.687 29.2279C168.918 29.8284 169.034 30.5678 169.034 31.4461V32.0588H161.843V30.8088H167.576C167.576 30.2778 167.47 29.8039 167.26 29.3872C167.054 28.9706 166.758 28.6417 166.373 28.4007C165.993 28.1597 165.543 28.0392 165.025 28.0392C164.454 28.0392 163.96 28.1822 163.543 28.4681C163.13 28.75 162.812 29.1177 162.589 29.5711C162.367 30.0245 162.256 30.5106 162.256 31.0294V31.8627C162.256 32.5735 162.377 33.1761 162.62 33.6703C162.867 34.1605 163.209 34.5343 163.646 34.7917C164.084 35.0449 164.592 35.1716 165.171 35.1716C165.547 35.1716 165.887 35.1185 166.191 35.0122C166.499 34.9019 166.764 34.7386 166.987 34.522C167.21 34.3015 167.382 34.0278 167.503 33.701L168.888 34.0931C168.742 34.567 168.497 34.9836 168.153 35.3431C167.809 35.6985 167.384 35.9763 166.877 36.1764C166.371 36.3726 165.802 36.4706 165.171 36.4706ZM178.164 28.9706L176.876 29.3382C176.795 29.1217 176.676 28.9113 176.518 28.7071C176.364 28.4987 176.153 28.3272 175.886 28.1924C175.619 28.0576 175.277 27.9902 174.86 27.9902C174.289 27.9902 173.813 28.1229 173.433 28.3885C173.056 28.6499 172.868 28.9828 172.868 29.3872C172.868 29.7467 172.997 30.0306 173.257 30.239C173.516 30.4473 173.921 30.6209 174.471 30.7598L175.856 31.1029C176.69 31.3072 177.311 31.6197 177.72 32.0404C178.129 32.4571 178.334 32.9943 178.334 33.6519C178.334 34.1911 178.18 34.6732 177.872 35.098C177.568 35.5229 177.143 35.8578 176.597 36.1029C176.05 36.348 175.414 36.4706 174.69 36.4706C173.738 36.4706 172.951 36.2622 172.327 35.8456C171.704 35.4289 171.309 34.8203 171.143 34.0196L172.503 33.6764C172.633 34.183 172.878 34.5629 173.238 34.8162C173.603 35.0694 174.078 35.1961 174.665 35.1961C175.333 35.1961 175.864 35.0531 176.257 34.7672C176.654 34.4771 176.852 34.1299 176.852 33.7255C176.852 33.3987 176.739 33.125 176.512 32.9044C176.285 32.6797 175.937 32.5122 175.467 32.4019L173.912 32.0343C173.058 31.83 172.43 31.5135 172.03 31.0846C171.633 30.6515 171.434 30.1103 171.434 29.4608C171.434 28.9297 171.582 28.4599 171.878 28.0514C172.177 27.6429 172.584 27.3223 173.098 27.0895C173.617 26.8566 174.204 26.7402 174.86 26.7402C175.783 26.7402 176.508 26.9444 177.034 27.3529C177.565 27.7614 177.941 28.3007 178.164 28.9706Z" fill="#555555"/>
</svg>
